<svg xmlns="http://www.w3.org/2000/svg" width="256" height="256" viewBox="0 0 100 100"><rect width="100" height="100" rx="50" fill="#d0021b"></rect><path d="M33.34 69.32L30.43 69.32Q29.87 69.32 29.50 68.96Q29.14 68.59 29.14 68.03L29.14 68.03L29.14 35.10L18.39 35.10Q17.83 35.10 17.46 34.74Q17.10 34.38 17.10 33.82L17.10 33.82L17.10 31.46Q17.10 30.85 17.46 30.48Q17.83 30.12 18.39 30.12L18.39 30.12L45.38 30.12Q46.00 30.12 46.36 30.48Q46.72 30.85 46.72 31.46L46.72 31.46L46.72 33.82Q46.72 34.38 46.36 34.74Q46.00 35.10 45.38 35.10L45.38 35.10L34.68 35.10L34.68 68.03Q34.68 68.59 34.32 68.96Q33.96 69.32 33.34 69.32L33.34 69.32ZM67.78 69.88L67.78 69.88Q63.08 69.88 59.69 68.20Q56.30 66.52 54.48 63.08Q52.66 59.63 52.66 54.20L52.66 54.20L52.66 31.46Q52.66 30.85 53.00 30.48Q53.33 30.12 53.95 30.12L53.95 30.12L56.80 30.12Q57.42 30.12 57.78 30.48Q58.15 30.85 58.15 31.46L58.15 31.46L58.15 54.31Q58.15 59.80 60.72 62.43Q63.30 65.06 67.78 65.06L67.78 65.06Q72.20 65.06 74.81 62.43Q77.41 59.80 77.41 54.31L77.41 54.31L77.41 31.46Q77.41 30.85 77.78 30.48Q78.14 30.12 78.70 30.12L78.70 30.12L81.61 30.12Q82.17 30.12 82.54 30.48Q82.90 30.85 82.90 31.46L82.90 31.46L82.90 54.20Q82.90 59.63 81.08 63.08Q79.26 66.52 75.90 68.20Q72.54 69.88 67.78 69.88Z" fill="#fff"></path></svg>